<svg width="160" height="46" viewBox="0 0 160 46" fill="none" xmlns="http://www.w3.org/2000/svg">
<g id="Shipday logo" clip-path="url(#clip0_1584_50044)">
<path id="Vector" fill-rule="evenodd" clip-rule="evenodd" d="M14.972 7.51063L1.07822 15.5333C0.410522 15.9173 0 16.6302 0 17.3988V33.4442C0.00241484 34.2133 0.410522 34.9232 1.07822 35.3096L14.972 43.3323C15.6397 43.7169 16.4607 43.7169 17.1284 43.3323L31.0252 35.3096C31.6899 34.9257 32.1004 34.2133 32.1004 33.4442V17.3988C32.1004 16.6302 31.6899 15.9173 31.0252 15.5333L17.1284 7.51063C16.8169 7.33193 16.4632 7.2305 16.1015 7.22326C16.0852 7.22266 16.0683 7.22266 16.0514 7.22266C15.6729 7.22266 15.3022 7.32166 14.972 7.51063ZM16.0502 11.864L27.7893 18.6418V32.1993L16.0502 38.9772V11.864Z" fill="url(#paint0_linear_1584_50044)"/>
<path id="Vector_2" fill-rule="evenodd" clip-rule="evenodd" d="M56.3006 8.03223V35.7995H61.1515V24.4192C61.1515 23.8693 61.1909 23.3615 61.3483 22.9717C61.8552 21.5243 63.1849 20.2735 65.0618 20.2735C67.7211 20.2735 68.7405 22.3468 68.7405 25.1237V35.7995H73.5485V24.5729C73.5485 18.4756 70.1452 16.3245 66.8993 16.3245C65.6877 16.3245 64.5539 16.6356 63.6141 17.1818C62.6386 17.6933 61.8159 18.4756 61.2302 19.3732H61.1515V8.03223H56.3006ZM117.656 8.03223V18.826H117.577C116.719 17.4179 114.839 16.3245 112.218 16.3245C107.643 16.3245 103.654 20.1161 103.693 26.4888C103.693 32.3574 107.293 36.2286 111.829 36.2286C114.606 36.2286 116.912 34.8992 118.048 32.7865H118.127L118.32 35.7995H122.624C122.546 34.5094 122.467 32.3968 122.467 30.4415V8.03223H117.656ZM78.3885 8.07157C76.5582 8.07157 75.31 9.36533 75.31 11.0635C75.31 12.7113 76.5152 14.0051 78.3418 14.0051C80.2617 14.0051 81.466 12.7113 81.466 11.0635C81.4229 9.36533 80.2617 8.07157 78.3885 8.07157ZM48.9687 16.3245C44.5469 16.3245 41.7696 18.9441 41.7696 22.3075C41.7303 24.5336 43.296 26.5675 47.0104 27.8613C49.3586 28.6802 50.141 29.3444 50.141 30.6345C50.141 31.8862 49.2012 32.7472 47.0891 32.7472C45.3696 32.7472 43.296 32.0427 42.2024 31.3784L41.2617 34.8598C42.6701 35.6421 44.7437 36.2286 47.0498 36.2286C52.0966 36.2286 54.7952 33.6869 54.7952 30.2457C54.7559 27.4285 53.1508 25.6709 49.7091 24.4192C47.2849 23.5582 46.3845 22.9717 46.3845 21.7567C46.3845 20.5846 47.3243 19.7657 49.0438 19.7657C50.7276 19.7657 52.254 20.3915 53.073 20.86L54.0128 17.4573C52.9192 16.8708 51.078 16.3245 48.9687 16.3245ZM94.2628 16.3245C91.3674 16.3245 89.1409 17.5359 87.7326 19.6879H87.6539L87.4178 16.7527H83.1928C83.2715 18.5506 83.3492 20.5846 83.3492 23.0898V43.541H88.1609V33.6869H88.2396C89.216 35.213 91.21 36.2286 93.5984 36.2286C97.9378 36.2286 102.281 32.9046 102.281 26.0204C102.281 20.0768 98.6416 16.3245 94.2628 16.3245ZM132.333 16.3245C129.32 16.3245 126.856 17.1425 125.448 18.0044L126.388 21.1317C127.679 20.3128 129.634 19.7236 131.51 19.7236C134.874 19.7236 135.382 21.7997 135.382 23.0504V23.3615C128.343 23.3222 124.079 25.7496 124.079 30.5559C124.079 33.4508 126.231 36.2286 130.063 36.2286C132.526 36.2286 134.524 35.1737 135.697 33.6869H135.811L136.125 35.7995H140.468C140.272 34.6238 140.194 32.9439 140.194 31.221V24.3405C140.194 20.1948 138.435 16.3245 132.333 16.3245ZM76.0037 35.7995H80.8547V16.7527H76.0037V35.7995ZM140.34 16.7527L147.303 34.234C147.539 34.7025 147.579 34.9769 147.579 35.17C147.579 35.4061 147.461 35.6815 147.264 36.0319C146.599 37.322 145.544 38.4584 144.644 39.0449C143.665 39.7485 142.649 40.1776 141.827 40.3743L142.924 44.4413C144.136 44.2839 146.092 43.659 147.968 41.9755C150.238 40.0202 151.997 36.8535 154.617 29.7379L159.389 16.7527H154.228L151.254 26.9216C150.903 28.1724 150.549 29.5805 150.238 30.6739H150.12C149.845 29.5805 149.456 28.133 149.062 26.961L145.623 16.7527H140.34ZM113.395 20.0374C115.582 20.0374 117.108 21.5636 117.538 23.4402C117.616 23.83 117.656 24.3012 117.656 24.6909V27.5465C117.656 28.0543 117.616 28.5228 117.498 28.9547C117.03 31.028 115.31 32.3574 113.352 32.3574C110.303 32.3574 108.583 29.8129 108.583 26.3351C108.583 22.7759 110.303 20.0374 113.395 20.0374ZM92.6577 20.1161C95.7462 20.1161 97.3906 22.8537 97.3906 26.2171C97.3906 29.9703 95.5924 32.5111 92.5396 32.5111C90.5063 32.5111 88.7868 31.1067 88.3183 29.1514C88.2002 28.7195 88.1609 28.2904 88.1609 27.8219V24.8877C88.1609 24.4942 88.2396 24.066 88.3576 23.6763C88.8261 21.5636 90.6637 20.1161 92.6577 20.1161ZM134.863 26.4852C135.075 26.4852 135.289 26.4852 135.5 26.4925V29.112C135.5 29.4231 135.461 29.8166 135.343 30.167C134.914 31.5358 133.505 32.7865 131.589 32.7865C130.063 32.7865 128.851 31.9256 128.851 30.049C128.851 27.3361 131.703 26.5135 134.863 26.4852Z" fill="#173308"/>
</g>
<defs>
<linearGradient id="paint0_linear_1584_50044" x1="6.38781e-08" y1="11.2425" x2="34.9568" y2="14.0419" gradientUnits="userSpaceOnUse">
<stop stop-color="#34C896"/>
<stop offset="1" stop-color="#9EE870"/>
</linearGradient>
<clipPath id="clip0_1584_50044">
<rect width="159.391" height="44.5" fill="white" transform="translate(0 0.75)"/>
</clipPath>
</defs>
</svg>
